<svg width="521" height="512" version="1.1" viewBox="0 0 512 512" xmlns="http://www.w3.org/2000/svg" xmlns:xlink="http://www.w3.org/1999/xlink" x="0px" y="0px"
	 width="100%" viewBox="0 0 500 500" enable-background="new 0 0 500 500" xml:space="preserve">
<path fill="#000000" opacity="1.000000" stroke="none" 
	d="
M219.000000,501.000000 
	C146.000015,501.000000 73.500038,501.000000 1.000039,501.000000 
	C1.000026,334.333405 1.000026,167.666779 1.000013,1.000128 
	C167.666565,1.000086 334.333130,1.000086 500.999756,1.000043 
	C500.999847,167.666534 500.999847,334.333069 500.999939,500.999817 
	C407.166656,501.000000 313.333344,501.000000 219.000000,501.000000 
M205.618164,246.615616 
	C206.025818,245.062668 206.433456,243.509735 207.163284,241.347183 
	C213.781677,229.272369 230.946991,224.438187 245.093048,228.583557 
	C258.743530,232.583679 264.958740,244.993393 261.220520,260.674835 
	C253.519806,261.111176 245.752487,261.355621 238.024109,262.039856 
	C228.828995,262.853912 219.564651,263.505920 210.520142,265.226196 
	C201.553116,266.931793 193.162659,270.692383 187.108398,277.936401 
	C178.722519,287.970276 176.942017,299.828705 179.137207,312.310181 
	C180.678009,321.070953 185.102005,328.309235 192.692429,333.325989 
	C205.223587,341.608307 218.873138,342.263702 233.126801,339.441956 
	C242.772293,337.532410 250.734024,332.946777 256.993744,325.414825 
	C258.885101,323.139069 260.573456,320.694641 262.844269,317.677063 
	C263.468933,325.030487 264.008881,331.386963 264.558441,337.856049 
	C271.309662,337.856049 277.628143,337.856049 284.630585,337.370026 
	C284.750702,336.553406 284.974854,335.736908 284.975800,334.920135 
	C285.007812,307.800079 285.031036,280.679932 284.992096,253.559937 
	C284.990326,252.322250 284.400696,251.085419 284.019836,248.961227 
	C284.679108,231.042114 275.010742,216.597458 257.275940,212.867203 
	C241.014038,209.446762 224.323563,208.678558 208.328964,214.513992 
	C199.016922,217.911362 191.052414,223.589752 187.364899,234.373688 
	C186.876709,236.251389 186.388519,238.129105 185.967300,239.988663 
	C185.967300,239.988663 185.946487,239.922485 185.359711,240.416138 
	C186.022202,243.162582 182.217926,246.284088 186.922119,248.876892 
	C188.949173,248.852417 190.976242,248.827942 193.495407,248.894287 
	C193.660049,248.867477 193.824692,248.840652 194.818390,248.923141 
	C196.209229,248.886642 197.600052,248.850128 199.801010,248.942307 
	C201.548264,248.312698 203.295517,247.683090 205.027390,247.026855 
	C205.027390,247.026855 205.055405,247.038193 205.618164,246.615616 
M326.977112,215.162460 
	C325.949860,214.111328 324.974030,212.221497 323.886414,212.154800 
	C319.272400,211.871887 314.625183,212.130112 309.202881,212.075867 
	C308.145264,212.113617 307.087646,212.151367 305.553955,212.204391 
	C305.219574,212.372726 305.091797,212.639816 305.046204,213.919434 
	C305.085876,217.615295 305.125580,221.311172 305.047913,225.938416 
	C305.028473,261.704437 304.996490,297.470428 305.032593,333.236420 
	C305.034149,334.765686 305.665314,336.294342 306.932281,337.948151 
	C313.281982,337.895966 319.631714,337.843811 326.665283,337.316162 
	C326.726074,314.552917 326.786896,291.789642 326.972473,268.093018 
	C326.929352,259.726624 326.886261,251.360245 326.955688,242.093048 
	C326.917450,239.076370 326.879211,236.059677 326.965240,232.122986 
	C326.923798,228.412277 326.882324,224.701569 326.955383,220.164459 
	C326.913208,218.779129 326.871033,217.393784 326.977112,215.162460 
M148.107407,285.903687 
	C148.107407,285.903687 148.233353,286.278381 148.151001,286.419250 
	C148.151001,286.419250 148.264420,286.536530 148.149536,287.312561 
	C148.172897,291.233490 148.196259,295.154419 148.076599,299.666840 
	C148.039719,300.070831 148.002823,300.474823 147.450668,301.230713 
	C147.043472,302.173584 146.636276,303.116486 145.869049,304.649963 
	C143.511398,307.126770 141.456268,310.016205 138.741837,312.006439 
	C128.906525,319.217743 117.610367,321.267883 105.607452,321.087616 
	C86.525185,320.801025 71.242104,314.370514 62.884350,295.242645 
	C62.400360,293.900482 61.916370,292.558319 61.418301,291.177124 
	C55.162708,291.177124 49.085125,291.177124 42.272083,291.062103 
	C41.530415,291.096588 40.788746,291.131073 39.300861,291.053284 
	C37.053936,292.421570 37.036476,292.781494 38.997330,298.895538 
	C41.855648,311.966400 50.008114,321.153778 60.806732,328.291992 
	C71.642563,335.454865 83.682144,338.795624 96.579491,340.198120 
	C114.312912,342.126495 131.096924,339.958221 147.173904,331.965515 
	C162.884766,324.154846 175.204346,306.128479 172.344360,285.117767 
	C169.487961,264.133331 155.509537,248.815155 135.244034,243.886383 
	C118.614777,239.841980 102.047142,235.515518 85.563240,230.916122 
	C78.947960,229.070297 73.081093,225.510040 69.564384,219.168442 
	C62.955620,207.250992 69.380333,193.160110 81.375519,186.350021 
	C91.723305,180.475235 102.960526,178.941238 114.888214,180.877274 
	C131.930481,183.643463 143.516815,191.850906 146.149155,210.747375 
	C147.462814,211.092682 148.776474,211.437973 150.710358,211.891846 
	C151.127731,211.861252 151.545120,211.830673 152.899277,211.936646 
	C158.474701,211.936646 164.050125,211.936646 170.430466,211.936646 
	C169.881302,208.373581 169.449097,205.569336 169.005753,201.990982 
	C165.812592,195.272873 163.133163,188.244003 159.302658,181.911392 
	C153.916214,173.006531 144.599533,168.967667 135.462646,165.048584 
	C124.482376,160.338837 112.834831,161.125565 101.255188,160.916550 
	C86.687241,160.653625 73.342430,164.281433 61.908215,173.194885 
	C44.754684,186.566788 40.554409,201.025528 43.827461,221.323624 
	C44.491402,225.441101 45.908546,229.694717 48.015865,233.274963 
	C55.152596,245.399933 66.842857,251.393448 79.846321,254.896103 
	C97.127144,259.550934 114.545586,263.694885 132.294571,268.625214 
	C134.525620,269.792786 136.756683,270.960327 139.153641,272.537964 
	C139.329834,272.794189 139.569733,272.955933 140.117661,273.507324 
	C140.418137,273.696930 140.718597,273.886536 140.988739,274.003815 
	C140.988739,274.003815 140.916428,274.034180 141.228012,274.642242 
	C143.557343,278.313690 145.886658,281.985107 148.265457,285.563171 
	C148.265457,285.563171 148.172043,285.513702 148.107407,285.903687 
M327.639954,186.540970 
	C327.639954,178.490997 327.639954,170.441025 327.639954,162.492676 
	C319.615265,162.492676 311.943237,162.492676 303.981384,162.492676 
	C303.981384,168.777344 303.881470,174.578110 304.033173,180.372284 
	C304.089630,182.529404 304.734650,184.671127 306.026520,186.917297 
	C311.013153,186.881500 315.999786,186.845718 321.785004,186.923187 
	C322.857910,186.886719 323.930847,186.850266 325.602203,186.903473 
	C326.003967,186.875687 326.405762,186.847900 327.639954,186.540970 
M466.801178,229.911606 
	C467.499268,229.409882 468.794464,228.920410 468.805023,228.404572 
	C468.941742,221.745331 468.895477,215.082321 468.895477,207.614761 
	C467.027252,208.720734 465.973450,209.344574 464.161041,210.009811 
	C455.930573,213.303604 447.735596,216.692200 439.434143,219.796143 
	C438.078796,220.302917 436.102448,219.914825 434.673279,219.317703 
	C429.978394,217.356125 425.514343,214.811554 420.759735,213.029587 
	C409.740601,208.899765 398.200897,210.551270 386.973694,211.304703 
	C376.016479,212.039993 365.557556,215.906586 357.235199,223.431442 
	C342.109283,237.107864 342.191895,260.080536 355.566132,274.958649 
	C358.812927,278.570526 362.691895,281.614105 366.549438,285.166992 
	C358.703674,288.170227 350.572632,290.522430 347.753967,299.683807 
	C344.571930,310.026459 351.620728,314.705475 358.126892,318.777466 
	C352.967621,322.806152 347.805695,326.594757 342.914948,330.705902 
	C332.469086,339.486664 334.764862,358.667664 346.158600,367.118561 
	C359.347473,376.900970 374.716095,378.707153 390.126617,379.828094 
	C403.823120,380.824341 417.611603,379.938995 430.920471,375.941681 
	C443.562622,372.144562 454.070190,365.503998 459.075958,352.512207 
	C464.051147,339.599731 460.330261,321.314880 446.799774,313.846649 
	C437.072601,308.477692 426.672150,306.927307 415.988037,306.042908 
	C402.648651,304.938690 389.277496,304.178528 375.964813,302.828461 
	C373.568054,302.585449 371.387512,300.210022 369.107147,298.819122 
	C370.848236,296.842560 372.502899,294.777832 374.378998,292.938995 
	C375.003906,292.326538 376.182037,292.092773 377.131317,292.025482 
	C387.249298,291.308258 397.366821,290.560303 407.495026,290.017609 
	C419.219360,289.389435 430.193878,286.036926 438.888672,278.292267 
	C450.895660,267.597321 453.862457,253.796661 449.090149,238.477356 
	C447.980774,234.916168 447.903442,233.092285 452.542389,232.744095 
	C457.057526,232.405243 461.481384,230.850967 466.801178,229.911606 
z"/>
<path fill="#3C835E" opacity="1.000000" stroke="none" 
	d="
M465.945343,229.830353 
	C461.481384,230.850967 457.057526,232.405243 452.542389,232.744095 
	C447.903442,233.092285 447.980774,234.916168 449.090149,238.477356 
	C453.862457,253.796661 450.895660,267.597321 438.888672,278.292267 
	C430.193878,286.036926 419.219360,289.389435 407.495026,290.017609 
	C397.366821,290.560303 387.249298,291.308258 377.131317,292.025482 
	C376.182037,292.092773 375.003906,292.326538 374.378998,292.938995 
	C372.502899,294.777832 370.848236,296.842560 369.107147,298.819122 
	C371.387512,300.210022 373.568054,302.585449 375.964813,302.828461 
	C389.277496,304.178528 402.648651,304.938690 415.988037,306.042908 
	C426.672150,306.927307 437.072601,308.477692 446.799774,313.846649 
	C460.330261,321.314880 464.051147,339.599731 459.075958,352.512207 
	C454.070190,365.503998 443.562622,372.144562 430.920471,375.941681 
	C417.611603,379.938995 403.823120,380.824341 390.126617,379.828094 
	C374.716095,378.707153 359.347473,376.900970 346.158600,367.118561 
	C334.764862,358.667664 332.469086,339.486664 342.914948,330.705902 
	C347.805695,326.594757 352.967621,322.806152 358.126892,318.777466 
	C351.620728,314.705475 344.571930,310.026459 347.753967,299.683807 
	C350.572632,290.522430 358.703674,288.170227 366.549438,285.166992 
	C362.691895,281.614105 358.812927,278.570526 355.566132,274.958649 
	C342.191895,260.080536 342.109283,237.107864 357.235199,223.431442 
	C365.557556,215.906586 376.016479,212.039993 386.973694,211.304703 
	C398.200897,210.551270 409.740601,208.899765 420.759735,213.029587 
	C425.514343,214.811554 429.978394,217.356125 434.673279,219.317703 
	C436.102448,219.914825 438.078796,220.302917 439.434143,219.796143 
	C447.735596,216.692200 455.930573,213.303604 464.831360,210.110580 
	C466.215302,211.243866 467.592682,212.316910 467.532501,213.302155 
	C467.195221,218.823273 466.511078,224.323196 465.945343,229.830353 
M373.712036,235.354858 
	C373.482056,235.614532 373.252106,235.874207 372.977966,236.496933 
	C372.977966,236.496933 372.891083,236.852219 372.583771,237.284286 
	C372.406067,237.588654 372.228363,237.893036 371.671082,238.838867 
	C367.367126,249.696396 367.503632,260.325287 376.889648,268.142975 
	C387.035400,276.593414 399.345642,276.907898 411.605103,273.175354 
	C423.891785,269.434509 428.496338,262.462769 428.914093,250.860153 
	C429.323029,239.503616 422.730072,230.695709 412.024078,227.062149 
	C404.132080,224.383636 396.151184,224.642380 387.568939,226.229736 
	C387.042450,226.433975 386.515961,226.638214 385.568695,226.967316 
	C385.568695,226.967316 385.133575,227.024887 384.738007,227.273300 
	C384.477325,227.444931 384.225067,227.628174 383.563110,227.958267 
	C383.563110,227.958267 383.127930,228.019302 382.732025,228.264496 
	C382.471466,228.434906 382.219818,228.617569 381.567932,228.952499 
	C381.567932,228.952499 381.139984,229.014587 380.519653,229.008041 
	C379.352356,230.047668 378.185028,231.087311 376.798492,232.633728 
	C376.238617,233.095688 375.678741,233.557648 374.727051,234.358353 
	C374.478088,234.598297 374.229156,234.838242 373.982880,234.982117 
	C373.982880,234.982117 374.078949,234.984772 373.712036,235.354858 
M368.988556,327.987640 
	C368.988556,327.987640 369.050659,328.002350 368.672607,328.249268 
	C368.424744,328.422150 368.188599,328.609833 367.414093,329.122437 
	C366.317322,330.086761 365.220581,331.051086 363.739532,332.366333 
	C363.497955,332.615234 363.256348,332.864136 362.959290,333.478302 
	C362.959290,333.478302 362.868591,333.836456 362.555878,334.266479 
	C362.378967,334.572571 362.202057,334.878662 361.656189,335.811218 
	C355.497192,346.596283 362.925171,357.104401 372.855103,360.033630 
	C392.240723,365.752106 411.701355,367.783020 431.279785,358.644165 
	C431.524200,358.406647 431.768616,358.169098 432.012024,358.012512 
	C432.012024,358.012512 431.931030,358.011597 432.302246,357.660400 
	C432.529999,357.407837 432.757751,357.155304 433.162781,356.488159 
	C433.343079,356.227051 433.588440,356.063629 434.577942,355.775635 
	C439.212769,353.784088 439.268005,350.092926 438.112976,345.245209 
	C438.149353,344.498260 438.185730,343.751343 438.438416,342.421661 
	C437.937469,340.621002 437.436523,338.820312 436.989227,337.002655 
	C436.989227,337.002655 436.967529,337.054626 436.848083,336.372864 
	C435.848022,335.253662 434.847992,334.134491 433.447571,332.839264 
	C433.198273,332.661011 433.039734,332.422485 432.627808,331.734894 
	C432.373444,331.500610 432.119110,331.266357 431.448486,330.959045 
	C431.448486,330.959045 431.048065,330.823792 430.667572,330.533600 
	C430.408569,330.347443 430.139252,330.177673 429.120697,329.922668 
	C423.865570,328.897827 418.649414,327.344269 413.347534,326.953522 
	C400.654083,326.018005 387.920288,325.629547 374.730255,325.273132 
	C374.431885,325.470825 374.133514,325.668488 373.273224,325.949097 
	C372.895355,325.973602 372.517517,325.998138 371.739838,326.273712 
	C371.476135,326.446869 371.220428,326.631104 370.553833,326.952087 
	C370.553833,326.952087 370.120300,327.009613 369.723328,327.334747 
	C369.478210,327.573639 369.233093,327.812561 368.988556,327.987640 
z"/>
<path fill="#3C835E" opacity="1.000000" stroke="none" 
	d="
M147.965942,300.878815 
	C148.002823,300.474823 148.039719,300.070831 148.372421,299.076355 
	C148.533630,294.502747 148.399033,290.519653 148.264420,286.536530 
	C148.264420,286.536530 148.151001,286.419250 148.203217,286.248474 
	C148.270126,285.884033 148.242325,285.696014 148.172043,285.513702 
	C148.172043,285.513702 148.265457,285.563171 148.270447,285.186371 
	C148.256546,279.555420 146.641006,275.391663 140.916428,274.034180 
	C140.916428,274.034180 140.988739,274.003815 140.820038,273.856354 
	C140.392014,273.480316 140.132690,273.251740 139.873352,273.023193 
	C139.569733,272.955933 139.329834,272.794189 138.922409,272.035217 
	C136.429092,270.374390 134.166992,269.216370 131.904907,268.058319 
	C114.545586,263.694885 97.127144,259.550934 79.846321,254.896103 
	C66.842857,251.393448 55.152596,245.399933 48.015865,233.274963 
	C45.908546,229.694717 44.491402,225.441101 43.827461,221.323624 
	C40.554409,201.025528 44.754684,186.566788 61.908215,173.194885 
	C73.342430,164.281433 86.687241,160.653625 101.255188,160.916550 
	C112.834831,161.125565 124.482376,160.338837 135.462646,165.048584 
	C144.599533,168.967667 153.916214,173.006531 159.302658,181.911392 
	C163.133163,188.244003 165.812592,195.272873 168.993408,202.802979 
	C168.328613,209.754257 167.315903,210.673309 161.347748,210.978226 
	C158.213516,211.138367 155.090546,211.519012 151.962494,211.800095 
	C151.545120,211.830673 151.127731,211.861252 150.165085,211.630554 
	C148.473938,210.911469 147.328079,210.453659 146.182205,209.995865 
	C143.516815,191.850906 131.930481,183.643463 114.888214,180.877274 
	C102.960526,178.941238 91.723305,180.475235 81.375519,186.350021 
	C69.380333,193.160110 62.955620,207.250992 69.564384,219.168442 
	C73.081093,225.510040 78.947960,229.070297 85.563240,230.916122 
	C102.047142,235.515518 118.614777,239.841980 135.244034,243.886383 
	C155.509537,248.815155 169.487961,264.133331 172.344360,285.117767 
	C175.204346,306.128479 162.884766,324.154846 147.173904,331.965515 
	C131.096924,339.958221 114.312912,342.126495 96.579491,340.198120 
	C83.682144,338.795624 71.642563,335.454865 60.806732,328.291992 
	C50.008114,321.153778 41.855648,311.966400 39.061882,298.201538 
	C39.433319,295.393585 39.740200,293.279572 40.047077,291.165588 
	C40.788746,291.131073 41.530415,291.096588 43.033676,291.234467 
	C50.118435,293.027222 57.577610,289.982605 62.820343,296.039764 
	C71.242104,314.370514 86.525185,320.801025 105.607452,321.087616 
	C117.610367,321.267883 128.906525,319.217743 138.741837,312.006439 
	C141.456268,310.016205 143.511398,307.126770 146.255219,304.127014 
	C147.082916,302.695618 147.524429,301.787231 147.965942,300.878815 
z"/>
<path fill="#3C835E" opacity="1.000000" stroke="none" 
	d="
M283.946594,337.856049 
	C277.628143,337.856049 271.309662,337.856049 264.558441,337.856049 
	C264.008881,331.386963 263.468933,325.030487 262.844269,317.677063 
	C260.573456,320.694641 258.885101,323.139069 256.993744,325.414825 
	C250.734024,332.946777 242.772293,337.532410 233.126801,339.441956 
	C218.873138,342.263702 205.223587,341.608307 192.692429,333.325989 
	C185.102005,328.309235 180.678009,321.070953 179.137207,312.310181 
	C176.942017,299.828705 178.722519,287.970276 187.108398,277.936401 
	C193.162659,270.692383 201.553116,266.931793 210.520142,265.226196 
	C219.564651,263.505920 228.828995,262.853912 238.024109,262.039856 
	C245.752487,261.355621 253.519806,261.111176 261.220520,260.674835 
	C264.958740,244.993393 258.743530,232.583679 245.093048,228.583557 
	C230.946991,224.438187 213.781677,229.272369 206.781219,241.909958 
	C205.951218,243.994553 205.503311,245.516373 205.055405,247.038193 
	C205.055405,247.038193 205.027390,247.026855 204.689590,247.115036 
	C202.564819,247.740021 200.777863,248.276825 198.990891,248.813629 
	C197.600052,248.850128 196.209229,248.886642 194.282181,248.837204 
	C193.494705,248.714844 193.247147,248.732239 193.003296,248.803467 
	C190.976242,248.827942 188.949173,248.852417 186.479492,248.382874 
	C186.006729,245.233414 185.976608,242.577942 185.946472,239.922485 
	C185.946487,239.922485 185.967300,239.988663 186.159195,239.768494 
	C186.880463,237.672241 187.409821,235.796127 187.939194,233.920029 
	C191.052414,223.589752 199.016922,217.911362 208.328964,214.513992 
	C224.323563,208.678558 241.014038,209.446762 257.275940,212.867203 
	C275.010742,216.597458 284.679108,231.042114 284.057892,249.883423 
	C284.046143,279.822418 283.996368,308.839233 283.946594,337.856049 
M262.375275,298.231262 
	C262.305298,291.478363 262.235321,284.725464 262.015961,277.329712 
	C261.379303,276.727081 260.696472,275.557434 260.112793,275.604980 
	C246.675949,276.698883 232.971298,276.641266 219.898041,279.478058 
	C206.056061,282.481689 201.764603,289.295471 201.165817,301.560699 
	C200.364151,317.981903 216.593430,325.665283 230.495102,323.664398 
	C242.943909,321.872742 253.179077,316.016937 260.441620,304.502441 
	C260.951233,302.968475 261.460846,301.434509 262.031036,299.457397 
	C262.031036,299.457397 262.137146,299.022858 262.375275,298.231262 
z"/>
<path fill="#3A855E" opacity="1.000000" stroke="none" 
	d="
M306.030029,212.189102 
	C307.087646,212.151367 308.145264,212.113617 309.985657,212.246948 
	C315.849365,213.610580 320.930298,214.803162 326.027649,216.361267 
	C326.309662,218.148132 326.575287,219.569504 326.840881,220.990860 
	C326.882324,224.701569 326.923798,228.412277 326.795654,232.954529 
	C326.698456,236.855331 326.770782,239.924591 326.843140,242.993851 
	C326.886261,251.360245 326.929352,259.726624 326.796661,268.953491 
	C326.412170,272.444489 326.029694,275.074554 326.022461,277.705658 
	C325.967529,297.734222 325.985870,317.762939 325.981415,337.791626 
	C319.631714,337.843811 313.281982,337.895966 306.467560,337.428345 
	C306.001343,302.580566 306.020355,268.252594 305.962189,233.924744 
	C305.957153,230.951736 305.442932,227.979584 305.165253,225.007034 
	C305.125580,221.311172 305.085876,217.615295 305.259460,213.334412 
	C305.669891,212.573975 305.855652,212.387207 306.030029,212.189102 
z"/>
<path fill="#3B845E" opacity="1.000000" stroke="none" 
	d="
M320.986420,186.809937 
	C315.999786,186.845718 311.013153,186.881500 305.551819,186.411804 
	C305.064423,180.278046 304.839355,174.637650 305.159210,169.028336 
	C305.265167,167.170395 306.755676,163.841690 307.644348,163.831207 
	C313.149689,163.766281 318.698517,164.234894 324.144714,165.088730 
	C325.175323,165.250305 326.426361,167.899963 326.517609,169.463318 
	C326.854584,175.234879 326.747589,181.032379 326.807526,186.820099 
	C326.405762,186.847900 326.003967,186.875687 325.020996,186.770752 
	C323.288635,186.695343 322.137543,186.752640 320.986420,186.809937 
z"/>
<path fill="#477F61" opacity="1.000000" stroke="none" 
	d="
M305.106567,225.472717 
	C305.442932,227.979584 305.957153,230.951736 305.962189,233.924744 
	C306.020355,268.252594 306.001343,302.580566 306.002991,337.365906 
	C305.665314,336.294342 305.034149,334.765686 305.032593,333.236420 
	C304.996490,297.470428 305.028473,261.704437 305.106567,225.472717 
z"/>
<path fill="#2C6450" opacity="1.000000" stroke="none" 
	d="
M284.288574,337.613037 
	C283.996368,308.839233 284.046143,279.822418 284.090424,250.326904 
	C284.400696,251.085419 284.990326,252.322250 284.992096,253.559937 
	C285.031036,280.679932 285.007812,307.800079 284.975800,334.920135 
	C284.974854,335.736908 284.750702,336.553406 284.288574,337.613037 
z"/>
<path fill="#45745F" opacity="1.000000" stroke="none" 
	d="
M327.223755,186.680542 
	C326.747589,181.032379 326.854584,175.234879 326.517609,169.463318 
	C326.426361,167.899963 325.175323,165.250305 324.144714,165.088730 
	C318.698517,164.234894 313.149689,163.766281 307.644348,163.831207 
	C306.755676,163.841690 305.265167,167.170395 305.159210,169.028336 
	C304.839355,174.637650 305.064423,180.278046 305.094177,186.363098 
	C304.734650,184.671127 304.089630,182.529404 304.033173,180.372284 
	C303.881470,174.578110 303.981384,168.777344 303.981384,162.492676 
	C311.943237,162.492676 319.615265,162.492676 327.639954,162.492676 
	C327.639954,170.441025 327.639954,178.490997 327.223755,186.680542 
z"/>
<path fill="#468466" opacity="1.000000" stroke="none" 
	d="
M326.323364,337.553894 
	C325.985870,317.762939 325.967529,297.734222 326.022461,277.705658 
	C326.029694,275.074554 326.412170,272.444489 326.734253,269.420166 
	C326.786896,291.789642 326.726074,314.552917 326.323364,337.553894 
z"/>
<path fill="#4A7B63" opacity="1.000000" stroke="none" 
	d="
M466.373260,229.870972 
	C466.511078,224.323196 467.195221,218.823273 467.532501,213.302155 
	C467.592682,212.316910 466.215302,211.243866 465.210693,210.089874 
	C465.973450,209.344574 467.027252,208.720734 468.895477,207.614761 
	C468.895477,215.082321 468.941742,221.745331 468.805023,228.404572 
	C468.794464,228.920410 467.499268,229.409882 466.373260,229.870972 
z"/>
<path fill="#4B7861" opacity="1.000000" stroke="none" 
	d="
M152.430878,211.868378 
	C155.090546,211.519012 158.213516,211.138367 161.347748,210.978226 
	C167.315903,210.673309 168.328613,209.754257 168.998978,203.190033 
	C169.449097,205.569336 169.881302,208.373581 170.430466,211.936646 
	C164.050125,211.936646 158.474701,211.936646 152.430878,211.868378 
z"/>
<path fill="#487A60" opacity="1.000000" stroke="none" 
	d="
M62.852348,295.641205 
	C57.577610,289.982605 50.118435,293.027222 43.401405,291.291992 
	C49.085125,291.177124 55.162708,291.177124 61.418301,291.177124 
	C61.916370,292.558319 62.400360,293.900482 62.852348,295.641205 
z"/>
<path fill="#487A60" opacity="1.000000" stroke="none" 
	d="
M141.072220,274.338196 
	C146.641006,275.391663 148.256546,279.555420 148.245728,285.233063 
	C145.886658,281.985107 143.557343,278.313690 141.072220,274.338196 
z"/>
<path fill="#47785F" opacity="1.000000" stroke="none" 
	d="
M326.011261,215.995728 
	C320.930298,214.803162 315.849365,213.610580 310.379272,212.304321 
	C314.625183,212.130112 319.272400,211.871887 323.886414,212.154800 
	C324.974030,212.221497 325.949860,214.111328 326.698578,215.582458 
	C326.420044,216.002457 326.011261,215.995728 326.011261,215.995728 
z"/>
<path fill="#487A60" opacity="1.000000" stroke="none" 
	d="
M148.206970,286.924561 
	C148.399033,290.519653 148.533630,294.502747 148.443939,298.780609 
	C148.196259,295.154419 148.172897,291.233490 148.206970,286.924561 
z"/>
<path fill="#487A60" opacity="1.000000" stroke="none" 
	d="
M39.673969,291.109436 
	C39.740200,293.279572 39.433319,295.393585 39.042358,297.811981 
	C37.036476,292.781494 37.053936,292.421570 39.673969,291.109436 
z"/>
<path fill="#487A60" opacity="1.000000" stroke="none" 
	d="
M132.099731,268.341766 
	C134.166992,269.216370 136.429092,270.374390 138.839447,271.830170 
	C136.756683,270.960327 134.525620,269.792786 132.099731,268.341766 
z"/>
<path fill="#40755C" opacity="1.000000" stroke="none" 
	d="
M187.652039,234.146851 
	C187.409821,235.796127 186.880463,237.672241 186.125717,239.777573 
	C186.388519,238.129105 186.876709,236.251389 187.652039,234.146851 
z"/>
<path fill="#40755C" opacity="1.000000" stroke="none" 
	d="
M185.653091,240.169312 
	C185.976608,242.577942 186.006729,245.233414 186.048737,248.326187 
	C182.217926,246.284088 186.022202,243.162582 185.653091,240.169312 
z"/>
<path fill="#468466" opacity="1.000000" stroke="none" 
	d="
M326.899414,242.543457 
	C326.770782,239.924591 326.698456,236.855331 326.733521,233.414536 
	C326.879211,236.059677 326.917450,239.076370 326.899414,242.543457 
z"/>
<path fill="#4B7861" opacity="1.000000" stroke="none" 
	d="
M146.165680,210.371613 
	C147.328079,210.453659 148.473938,210.911469 149.854965,211.576279 
	C148.776474,211.437973 147.462814,211.092682 146.165680,210.371613 
z"/>
<path fill="#40755C" opacity="1.000000" stroke="none" 
	d="
M199.395950,248.877960 
	C200.777863,248.276825 202.564819,247.740021 204.697281,247.128357 
	C203.295517,247.683090 201.548264,248.312698 199.395950,248.877960 
z"/>
<path fill="#40755C" opacity="1.000000" stroke="none" 
	d="
M205.336792,246.826904 
	C205.503311,245.516373 205.951218,243.994553 206.620117,242.214767 
	C206.433456,243.509735 206.025818,245.062668 205.336792,246.826904 
z"/>
<path fill="#468466" opacity="1.000000" stroke="none" 
	d="
M326.027649,216.361252 
	C326.011261,215.995728 326.420044,216.002457 326.624451,216.005463 
	C326.871033,217.393784 326.913208,218.779129 326.898132,220.577667 
	C326.575287,219.569504 326.309662,218.148132 326.027649,216.361252 
z"/>
<path fill="#45745F" opacity="1.000000" stroke="none" 
	d="
M321.385712,186.866547 
	C322.137543,186.752640 323.288635,186.695343 324.721741,186.725922 
	C323.930847,186.850266 322.857910,186.886719 321.385712,186.866547 
z"/>
<path fill="#487A60" opacity="1.000000" stroke="none" 
	d="
M147.708313,301.054749 
	C147.524429,301.787231 147.082916,302.695618 146.435242,303.831696 
	C146.636276,303.116486 147.043472,302.173584 147.708313,301.054749 
z"/>
<path fill="#487A60" opacity="1.000000" stroke="none" 
	d="
M139.995514,273.265259 
	C140.132690,273.251740 140.392014,273.480316 140.835205,273.892517 
	C140.718597,273.886536 140.418137,273.696930 139.995514,273.265259 
z"/>
<path fill="#40755C" opacity="1.000000" stroke="none" 
	d="
M193.249359,248.848877 
	C193.247147,248.732239 193.494705,248.714844 193.867645,248.782562 
	C193.824692,248.840652 193.660049,248.867477 193.249359,248.848877 
z"/>
<path fill="#487A60" opacity="1.000000" stroke="none" 
	d="
M148.139725,285.708679 
	C148.242325,285.696014 148.270126,285.884033 148.244400,286.178040 
	C148.233353,286.278381 148.107407,285.903687 148.139725,285.708679 
z"/>
<path fill="#47785F" opacity="1.000000" stroke="none" 
	d="
M305.791992,212.196747 
	C305.855652,212.387207 305.669891,212.573975 305.321655,212.877518 
	C305.091797,212.639816 305.219574,212.372726 305.791992,212.196747 
z"/>
<path fill="#000000" opacity="1.000000" stroke="none" 
	d="
M364.123840,332.015442 
	C365.220581,331.051086 366.317322,330.086761 367.942322,328.956787 
	C368.663879,328.528198 368.857269,328.265259 369.050659,328.002350 
	C369.050659,328.002350 368.988556,327.987640 369.234558,327.916382 
	C369.693817,327.566620 369.907043,327.288116 370.120300,327.009613 
	C370.120300,327.009613 370.553833,326.952087 371.023499,326.880188 
	C371.708649,326.546387 371.924133,326.284515 372.139648,326.022644 
	C372.517517,325.998138 372.895355,325.973602 373.858582,325.933563 
	C374.696869,325.618774 374.949829,325.319519 375.202789,325.020264 
	C387.920288,325.629547 400.654083,326.018005 413.347534,326.953522 
	C418.649414,327.344269 423.865570,328.897827 429.619690,330.199280 
	C430.428497,330.591858 430.738281,330.707825 431.048065,330.823792 
	C431.048065,330.823792 431.448486,330.959045 431.779602,331.233521 
	C432.397766,331.713257 432.684845,331.918457 432.971924,332.123657 
	C433.039734,332.422485 433.198273,332.661011 433.795319,333.218811 
	C435.084534,334.750458 436.026031,335.902527 436.967529,337.054626 
	C436.967529,337.054626 436.989227,337.002655 437.021606,337.393005 
	C437.443390,339.523682 437.832733,341.264038 438.222107,343.004395 
	C438.185730,343.751343 438.149353,344.498260 438.094879,346.004669 
	C436.684143,349.842072 435.291504,352.920013 433.898865,355.997955 
	C433.588440,356.063629 433.343079,356.227051 432.833740,356.810547 
	C432.313446,357.425842 432.122253,357.718719 431.931030,358.011597 
	C431.931030,358.011597 432.012024,358.012512 431.764709,358.072144 
	C431.307312,358.411316 431.097229,358.690826 430.887177,358.970367 
	C411.701355,367.783020 392.240723,365.752106 372.855103,360.033630 
	C362.925171,357.104401 355.497192,346.596283 362.113892,335.371338 
	C362.670563,334.566437 362.769592,334.201447 362.868591,333.836456 
	C362.868591,333.836456 362.959290,333.478302 363.235779,333.185730 
	C363.716125,332.600555 363.919983,332.307983 364.123840,332.015442 
z"/>
<path fill="#000000" opacity="1.000000" stroke="none" 
	d="
M388.104828,226.055450 
	C396.151184,224.642380 404.132080,224.383636 412.024078,227.062149 
	C422.730072,230.695709 429.323029,239.503616 428.914093,250.860153 
	C428.496338,262.462769 423.891785,269.434509 411.605103,273.175354 
	C399.345642,276.907898 387.035400,276.593414 376.889648,268.142975 
	C367.503632,260.325287 367.367126,249.696396 372.126678,238.385773 
	C372.685211,237.572540 372.788147,237.212372 372.891083,236.852219 
	C372.891083,236.852219 372.977966,236.496933 373.244934,236.195221 
	C373.700897,235.590591 373.889923,235.287689 374.078949,234.984772 
	C374.078949,234.984772 373.982880,234.982117 374.228516,234.921890 
	C374.689056,234.580978 374.903961,234.300293 375.118866,234.019623 
	C375.678741,233.557648 376.238617,233.095688 377.196350,232.223083 
	C378.776123,230.879822 379.958038,229.947205 381.139984,229.014587 
	C381.139984,229.014587 381.567932,228.952499 382.026459,228.866440 
	C382.699310,228.526688 382.913605,228.272995 383.127930,228.019302 
	C383.127930,228.019302 383.563110,227.958267 384.027832,227.876892 
	C384.706238,227.538635 384.919922,227.281769 385.133575,227.024887 
	C385.133575,227.024887 385.568695,226.967316 386.087585,226.947784 
	C387.105927,226.637314 387.605377,226.346390 388.104828,226.055450 
z"/>
<path fill="#47785F" opacity="1.000000" stroke="none" 
	d="
M434.238403,355.886780 
	C435.291504,352.920013 436.684143,349.842072 438.143463,346.376404 
	C439.268005,350.092926 439.212769,353.784088 434.238403,355.886780 
z"/>
<path fill="#47785F" opacity="1.000000" stroke="none" 
	d="
M438.330261,342.713013 
	C437.832733,341.264038 437.443390,339.523682 436.994781,337.401489 
	C437.436523,338.820312 437.937469,340.621002 438.330261,342.713013 
z"/>
<path fill="#487A60" opacity="1.000000" stroke="none" 
	d="
M380.829834,229.011322 
	C379.958038,229.947205 378.776123,230.879822 377.305969,231.969696 
	C378.185028,231.087311 379.352356,230.047668 380.829834,229.011322 
z"/>
<path fill="#47785F" opacity="1.000000" stroke="none" 
	d="
M436.907806,336.713745 
	C436.026031,335.902527 435.084534,334.750458 433.995483,333.306824 
	C434.847992,334.134491 435.848022,335.253662 436.907806,336.713745 
z"/>
<path fill="#487A60" opacity="1.000000" stroke="none" 
	d="
M387.836884,226.142593 
	C387.605377,226.346390 387.105927,226.637314 386.297974,226.885345 
	C386.515961,226.638214 387.042450,226.433975 387.836884,226.142593 
z"/>
<path fill="#47785F" opacity="1.000000" stroke="none" 
	d="
M430.857819,330.678711 
	C430.738281,330.707825 430.428497,330.591858 429.989136,330.250122 
	C430.139252,330.177673 430.408569,330.347443 430.857819,330.678711 
z"/>
<path fill="#47785F" opacity="1.000000" stroke="none" 
	d="
M431.083496,358.807251 
	C431.097229,358.690826 431.307312,358.411316 431.765198,358.031677 
	C431.768616,358.169098 431.524200,358.406647 431.083496,358.807251 
z"/>
<path fill="#47785F" opacity="1.000000" stroke="none" 
	d="
M432.116638,357.835999 
	C432.122253,357.718719 432.313446,357.425842 432.745087,357.017853 
	C432.757751,357.155304 432.529999,357.407837 432.116638,357.835999 
z"/>
<path fill="#487A60" opacity="1.000000" stroke="none" 
	d="
M384.935791,227.149094 
	C384.919922,227.281769 384.706238,227.538635 384.236877,227.809265 
	C384.225067,227.628174 384.477325,227.444931 384.935791,227.149094 
z"/>
<path fill="#487A60" opacity="1.000000" stroke="none" 
	d="
M382.929993,228.141907 
	C382.913605,228.272995 382.699310,228.526688 382.231018,228.796417 
	C382.219818,228.617569 382.471466,228.434906 382.929993,228.141907 
z"/>
<path fill="#4B7861" opacity="1.000000" stroke="none" 
	d="
M362.712250,334.051453 
	C362.769592,334.201447 362.670563,334.566437 362.298340,335.058105 
	C362.202057,334.878662 362.378967,334.572571 362.712250,334.051453 
z"/>
<path fill="#4B7861" opacity="1.000000" stroke="none" 
	d="
M363.931702,332.190887 
	C363.919983,332.307983 363.716125,332.600555 363.263489,333.003082 
	C363.256348,332.864136 363.497955,332.615234 363.931702,332.190887 
z"/>
<path fill="#47785F" opacity="1.000000" stroke="none" 
	d="
M432.799866,331.929260 
	C432.684845,331.918457 432.397766,331.713257 431.987732,331.270050 
	C432.119110,331.266357 432.373444,331.500610 432.799866,331.929260 
z"/>
<path fill="#487A60" opacity="1.000000" stroke="none" 
	d="
M372.737427,237.068253 
	C372.788147,237.212372 372.685211,237.572540 372.316467,238.065063 
	C372.228363,237.893036 372.406067,237.588654 372.737427,237.068253 
z"/>
<path fill="#4B7861" opacity="1.000000" stroke="none" 
	d="
M368.861633,328.125793 
	C368.857269,328.265259 368.663879,328.528198 368.217346,328.801697 
	C368.188599,328.609833 368.424744,328.422150 368.861633,328.125793 
z"/>
<path fill="#4B7861" opacity="1.000000" stroke="none" 
	d="
M369.921814,327.172180 
	C369.907043,327.288116 369.693817,327.566620 369.234283,327.948303 
	C369.233093,327.812561 369.478210,327.573639 369.921814,327.172180 
z"/>
<path fill="#4B7861" opacity="1.000000" stroke="none" 
	d="
M371.939758,326.148193 
	C371.924133,326.284515 371.708649,326.546387 371.232941,326.817322 
	C371.220428,326.631104 371.476135,326.446869 371.939758,326.148193 
z"/>
<path fill="#4B7861" opacity="1.000000" stroke="none" 
	d="
M374.966522,325.146698 
	C374.949829,325.319519 374.696869,325.618774 374.139526,325.892090 
	C374.133514,325.668488 374.431885,325.470825 374.966522,325.146698 
z"/>
<path fill="#487A60" opacity="1.000000" stroke="none" 
	d="
M374.922974,234.188995 
	C374.903961,234.300293 374.689056,234.580978 374.227173,234.969925 
	C374.229156,234.838242 374.478088,234.598297 374.922974,234.188995 
z"/>
<path fill="#487A60" opacity="1.000000" stroke="none" 
	d="
M373.895508,235.169815 
	C373.889923,235.287689 373.700897,235.590591 373.266998,236.013702 
	C373.252106,235.874207 373.482056,235.614532 373.895508,235.169815 
z"/>
<path fill="#000000" opacity="1.000000" stroke="none" 
	d="
M259.939636,304.977356 
	C253.179077,316.016937 242.943909,321.872742 230.495102,323.664398 
	C216.593430,325.665283 200.364151,317.981903 201.165817,301.560699 
	C201.764603,289.295471 206.056061,282.481689 219.898041,279.478058 
	C232.971298,276.641266 246.675949,276.698883 260.112793,275.604980 
	C260.696472,275.557434 261.379303,276.727081 262.025024,278.119629 
	C262.068420,285.613983 262.102783,292.318420 262.137146,299.022858 
	C262.137146,299.022858 262.031036,299.457397 261.718292,299.889954 
	C260.916901,301.874115 260.428284,303.425720 259.939636,304.977356 
z"/>
<path fill="#4B7861" opacity="1.000000" stroke="none" 
	d="
M262.256226,298.627075 
	C262.102783,292.318420 262.068420,285.613983 262.099731,278.441040 
	C262.235321,284.725464 262.305298,291.478363 262.256226,298.627075 
z"/>
<path fill="#4B7861" opacity="1.000000" stroke="none" 
	d="
M260.190613,304.739899 
	C260.428284,303.425720 260.916901,301.874115 261.687988,300.111511 
	C261.460846,301.434509 260.951233,302.968475 260.190613,304.739899 
z"/>
</svg>
